:FULLY-SPECIFIED
:FORCE-ALL-JOINTS-BE-3DOF
:DEGREES
577
root 7.09896 16.343 -3.58492 -166.499 74.4241 -173.527
lfemur -17.3019 -2.81475 -19.222
ltibia 45.4615 0 0
lfoot -32.685 9.56242 0
ltoes 6.01881 0 0
rfemur -51.6679 -12.1067 13.609
rtibia 45.2009 0 0
rfoot 9.7051 4.72844 0
rtoes -31.9483 0 0
lowerback 6.96582 -0.715708 -2.09922
upperback 2.46432 -0.915771 3.60853
thorax -1.26358 -0.429347 4.99196
lowerneck -5.2694 -13.5087 -4.07585
upperneck 10.1759 -18.2847 5.14926
head 4.76626 -8.85148 1.05386
lclavicle 7.05305e-15 -9.3824e-15 0
lhumerus -41.4142 -16.5408 94.1876
lradius 55.4139 0 0
lwrist 22.2229 0 0
lhand -21.2571 -4.38853 0
lfingers 7.12502 0 0
lthumb 5.12604 25.5279 0
rclavicle 7.05305e-15 -9.3824e-15 0
rhumerus 28.4424 15.4031 -73.911
rradius 133.765 0 0
rwrist -45.711 0 0
rhand -26.0512 -21.6005 0
rfingers 7.12502 0 0
rthumb 0.496233 -771.579 0
578
root 7.08706 16.3467 -3.5873 -165.074 74.1646 -172.113
lfemur -17.2971 -2.57293 -19.2617
ltibia 45.3953 0 0
lfoot -32.7099 9.70985 0
ltoes 6.20382 0 0
rfemur -51.6835 -12.1596 13.7045
rtibia 45.4143 0 0
rfoot 9.71476 4.93399 0
rtoes -31.7629 0 0
lowerback 6.93186 -0.741028 -2.11476
upperback 2.43956 -0.950878 3.58919
thorax -1.26699 -0.446754 4.98154
lowerneck -5.30377 -13.4639 -4.03886
upperneck 10.2203 -18.2286 5.12841
head 4.77982 -8.82223 1.0436
lclavicle 7.89182e-15 -9.18936e-15 0
lhumerus -41.2534 -16.7818 94.2007
lradius 55.4506 0 0
lwrist 22.2067 0 0
lhand -21.1734 -4.3597 0
lfingers 7.12502 0 0
lthumb 5.20683 25.5529 0
rclavicle 7.89182e-15 -9.18936e-15 0
rhumerus 28.3734 15.2881 -73.8861
rradius 133.575 0 0
rwrist -45.8206 0 0
rhand -26.0797 -21.6398 0
rfingers 7.12502 0 0
rthumb 0.468688 -771.618 0
579
root 7.07082 16.3518 -3.59054 -163.13 73.8107 -170.184
lfemur -17.2905 -2.24309 -19.3157
ltibia 45.3051 0 0
lfoot -32.7437 9.91094 0
ltoes 6.45616 0 0
rfemur -51.7047 -12.2317 13.8349
rtibia 45.7053 0 0
rfoot 9.72795 5.21436 0
rtoes -31.51 0 0
lowerback 6.88554 -0.775564 -2.13596
upperback 2.40578 -0.998763 3.56281
thorax -1.27165 -0.470496 4.96733
lowerneck -5.35065 -13.4028 -3.98842
upperneck 10.2808 -18.1521 5.09996
head 4.7983 -8.78235 1.02961
lclavicle 9.03585e-15 -8.92605e-15 0
lhumerus -41.0341 -17.1105 94.2186
lradius 55.5005 0 0
lwrist 22.1845 0 0
lhand -21.0591 -4.32036 0
lfingers 7.12502 0 0
lthumb 5.31703 25.5869 0
rclavicle 9.03585e-15 -8.92605e-15 0
rhumerus 28.2792 15.1313 -73.8522
rradius 133.317 0 0
rwrist -45.9701 0 0
rhand -26.1186 -21.6933 0
rfingers 7.12502 0 0
rthumb 0.431118 -771.672 0
580
root 7.0505 16.3582 -3.5946 -160.698 73.3678 -167.769
lfemur -17.2822 -1.83027 -19.3834
ltibia 45.1921 0 0
lfoot -32.7862 10.1626 0
ltoes 6.77199 0 0
rfemur -51.7314 -12.3221 13.9981
rtibia 46.0695 0 0
rfoot 9.74445 5.56527 0
rtoes -31.1935 0 0
lowerback 6.82757 -0.818789 -2.1625
upperback 2.3635 -1.0587 3.52979
thorax -1.27749 -0.500212 4.94955
lowerneck -5.40933 -13.3264 -3.92528
upperneck 10.3565 -18.0563 5.06436
head 4.82144 -8.73243 1.0121
lclavicle 1.04677e-14 -8.59649e-15 0
lhumerus -40.7596 -17.522 94.241
lradius 55.5631 0 0
lwrist 22.1568 0 0
lhand -20.9162 -4.27114 0
lfingers 7.12502 0 0
lthumb 5.45495 25.6296 0
rclavicle 1.04677e-14 -8.59649e-15 0
rhumerus 28.1614 14.9351 -73.8096
rradius 132.992 0 0
rwrist -46.1573 0 0
rhand -26.1673 -21.7604 0
rfingers 7.12502 0 0
rthumb 0.384096 -771.739 0
581
root 7.02634 16.3658 -3.59942 -157.806 72.8412 -164.899
lfemur -17.2724 -1.33949 -19.4639
ltibia 45.0578 0 0
lfoot -32.8366 10.4618 0
ltoes 7.14746 0 0
rfemur -51.763 -12.4294 14.1921
rtibia 46.5025 0 0
rfoot 9.76407 5.98244 0
rtoes -30.8172 0 0
lowerback 6.75865 -0.870175 -2.19404
upperback 2.31324 -1.12994 3.49054
thorax -1.28442 -0.535539 4.9284
lowerneck -5.47908 -13.2355 -3.85022
upperneck 10.4466 -17.9425 5.02203
head 4.84895 -8.67308 0.991277
lclavicle 1.21699e-14 -8.20471e-15 0
lhumerus -40.4333 -18.0111 94.2676
lradius 55.6374 0 0
lwrist 22.1239 0 0
lhand -20.7462 -4.21262 0
lfingers 7.12502 0 0
lthumb 5.61892 25.6802 0
rclavicle 1.21699e-14 -8.20471e-15 0
rhumerus 28.0214 14.7018 -73.7591
rradius 132.607 0 0
rwrist -46.3797 0 0
rhand -26.2252 -21.84 0
rfingers 7.12502 0 0
rthumb 0.328194 -771.818 0
582
root 6.9986 16.3746 -3.60496 -154.485 72.2364 -161.602
lfemur -17.2611 -0.775794 -19.5563
ltibia 44.9036 0 0
lfoot -32.8945 10.8055 0
ltoes 7.57873 0 0
rfemur -51.7994 -12.5528 14.4149
rtibia 46.9999 0 0
rfoot 9.78661 6.46159 0
rtoes -30.385 0 0
lowerback 6.67948 -0.929198 -2.23027
upperback 2.25552 -1.21178 3.44545
thorax -1.29238 -0.576115 4.90411
lowerneck -5.5592 -13.131 -3.76401
upperneck 10.55 -17.8117 4.97342
head 4.88055 -8.60492 0.967365
lclavicle 1.41251e-14 -7.75471e-15 0
lhumerus -40.0586 -18.5729 94.2981
lradius 55.7228 0 0
lwrist 22.0861 0 0
lhand -20.551 -4.1454 0
lfingers 7.12502 0 0
lthumb 5.80725 25.7385 0
rclavicle 1.41251e-14 -7.75471e-15 0
rhumerus 27.8605 14.4338 -73.701
rradius 132.164 0 0
rwrist -46.6352 0 0
rhand -26.2917 -21.9316 0
rfingers 7.12502 0 0
rthumb 0.263986 -771.909 0
583
root 6.96751 16.3843 -3.61117 -150.763 71.5587 -157.908
lfemur -17.2484 -0.144198 -19.6598
ltibia 44.7307 0 0
lfoot -32.9594 11.1906 0
ltoes 8.06193 0 0
rfemur -51.8401 -12.691 14.6646
rtibia 47.5571 0 0
rfoot 9.81186 6.99846 0
rtoes -29.9007 0 0
lowerback 6.59079 -0.995329 -2.27087
upperback 2.19084 -1.30347 3.39494
thorax -1.30131 -0.621578 4.8769
lowerneck -5.64898 -13.014 -3.66741
upperneck 10.6659 -17.6652 4.91895
head 4.91595 -8.52854 0.940572
lclavicle 1.63158e-14 -7.25051e-15 0
lhumerus -39.6387 -19.2023 94.3324
lradius 55.8185 0 0
lwrist 22.0437 0 0
lhand -20.3322 -4.07008 0
lfingers 7.12502 0 0
lthumb 6.01827 25.8037 0
rclavicle 1.63158e-14 -7.25051e-15 0
rhumerus 27.6803 14.1336 -73.6359
rradius 131.669 0 0
rwrist -46.9215 0 0
rhand -26.3662 -22.0341 0
rfingers 7.12502 0 0
rthumb 0.192045 -772.011 0
584
root 6.93332 16.3951 -3.61799 -146.671 70.8136 -153.847
lfemur -17.2345 0.550264 -19.7737
ltibia 44.5407 0 0
lfoot -33.0308 11.614 0
ltoes 8.59323 0 0
rfemur -51.8849 -12.8429 14.9391
rtibia 48.1698 0 0
rfoot 9.83962 7.58877 0
rtoes -29.3682 0 0
lowerback 6.49326 -1.06804 -2.3155
upperback 2.11972 -1.40429 3.33939
thorax -1.31112 -0.671566 4.84697
lowerneck -5.74768 -12.8854 -3.5612
upperneck 10.7933 -17.5041 4.85906
head 4.95487 -8.44457 0.911113
lclavicle 1.87245e-14 -6.69612e-15 0
lhumerus -39.1769 -19.8944 94.37
lradius 55.9237 0 0
lwrist 21.997 0 0
lhand -20.0917 -3.98727 0
lfingers 7.12502 0 0
lthumb 6.25028 25.8754 0
rclavicle 1.87245e-14 -6.69612e-15 0
rhumerus 27.4821 13.8035 -73.5644
rradius 131.123 0 0
rwrist -47.2363 0 0
rhand -26.4481 -22.1469 0
rfingers 7.12502 0 0
rthumb 0.112942 -772.124 0
